<svg id="图层_1" data-name="图层 1" xmlns="http://www.w3.org/2000/svg" viewBox="0 0 639 813"><defs><style>.cls-1{fill:#ffd1d4;}.cls-2{fill:#1e1e1e;}.cls-3{fill:#f7f8f9;}.cls-4{fill:#084dba;}</style></defs><title>程序员</title><path class="cls-1" d="M129.47,290.28c.63-.35-.59-23.41-.59-23.41a1.38,1.38,0,1,1,2.76-.07l.58,23a4.35,4.35,0,0,0,1.54,3.22c.51.28,2.18-.38,2.19-1.35l-.64-25.28a1.38,1.38,0,1,1,2.76-.07l.62,24.45a2.92,2.92,0,0,0,2.07,2.13c.69.07,1.56-1.66,2-2.38a2.15,2.15,0,0,0,.29-1.14L142.43,266a1.38,1.38,0,0,1,2.76-.07s-1,22.85.57,22.56c1.24-.3,5.7-11.74,5.73-16.88l.1-19.34a10,10,0,0,0-9.68-10.17l-8.84,0a9.74,9.74,0,0,0-9.41,7.7s0,8.26-.32,12.35l0,9.36c0,5.57,2.39,13.8,5.59,18.23C129,289.89,129.25,290.36,129.47,290.28Z"/><path class="cls-2" d="M109.66,263.28h53.5a6,6,0,0,1,6,6v23.86a6,6,0,0,1-6,6H109.43a5.81,5.81,0,0,1-5.81-5.81V269.31a6,6,0,0,1,6-6Z" transform="matrix(0.96, 0.28, -0.28, 0.96, 83.13, -26.76)"/><path class="cls-3" d="M114.57,266.62h39.25a4.42,4.42,0,0,1,4.42,4.42v17.5a4.42,4.42,0,0,1-4.42,4.42H114.4a4.26,4.26,0,0,1-4.26-4.26V271a4.42,4.42,0,0,1,4.42-4.42Z" transform="translate(82.64 -26.2) rotate(16.06)"/><rect class="cls-1" x="239.26" y="443.29" width="8.87" height="18.16" rx="4.21" ry="4.21" transform="translate(383.98 946.67) rotate(-167.53)"/><path class="cls-1" d="M259.14,472.22c.4-.49-8.14-19.07-8.14-19.07a1.22,1.22,0,1,1,2.25-1l8,18.76a3.85,3.85,0,0,0,2.32,2.14c.51.07,1.67-1,1.36-1.83l-8.79-20.59a1.22,1.22,0,0,1,2.25-1l8.5,19.91a2.59,2.59,0,0,0,2.39,1.07c.59-.17.74-1.87.85-2.6a1.9,1.9,0,0,0-.14-1L261.85,448a1.22,1.22,0,0,1,2.25-1s6.61,19.14,7.84,18.37c.92-.65.85-11.52-.8-15.76L264.9,433.7a8.82,8.82,0,0,0-11.29-5.2l-7.29,2.85a8.63,8.63,0,0,0-5.22,9.41s2.67,6.81,3.77,10.26l3,7.72c1.8,4.59,6.48,10.58,10.56,13.17C258.66,472,259,472.36,259.14,472.22Z"/><path class="cls-3" d="M199.31,165.93a79.33,79.33,0,0,0-75,83.41L152,247.88a51.53,51.53,0,0,1,48.74-54.18c27.41-1.45,52.69,20.33,54.19,48.74a79.34,79.34,0,0,0,157.52,8.64A13.94,13.94,0,0,0,398,234.85h0a13.94,13.94,0,0,0-13,11.73,51.55,51.55,0,0,1-48.68,43.13c-28.51,1.21-51.8-21.67-53.72-50.14C279.76,196.61,248,163.36,199.31,165.93Z"/><path class="cls-2" d="M411.18,415.56c3.47-7.08-.79-15.38-9.46-18.43h0c-10.18,0-21.61,6.4-25.39,14.13L324.61,517c-1.95,4-4.53,6.08-4.3,12,.23,6.13,2.9,5.67,3.61,8.82l27,121c1.7,7.62,10.6,12.87,19.78,11.67h0c9.18-1.2,15.3-8.42,13.61-16,0,0-25.7-114.12-28.52-124.49a2.09,2.09,0,0,1,.15-1.51C360.77,518.55,411.18,415.56,411.18,415.56Z"/><polygon class="cls-2" points="351.9 661.57 385.3 656.25 389.48 673.68 356.08 679 351.9 661.57"/><path class="cls-2" d="M456.18,496.75c7.92-1,12.71-9.08,10.65-18.06h0c-5.52-8.56-17.1-14.71-25.74-13.66L322.89,479.3c-4.45.54-7.63-.49-12.54,2.92-5.11,3.55-3.28,5.55-5.6,7.87l-88.92,89c-5.6,5.6-5.29,16,.68,23.05h0c6,7.08,15.43,8.29,21,2.69,0,0,83.68-84.11,91-92.17a2.15,2.15,0,0,1,1.37-.7C341,510.62,456.18,496.75,456.18,496.75Z"/><polygon class="cls-2" points="214.05 581.42 236.57 606.66 223.93 619.72 201.4 594.48 214.05 581.42"/><rect class="cls-1" x="397.87" y="245.48" width="25.23" height="51.53" transform="translate(-57.78 120.26) rotate(-15.59)"/><rect class="cls-2" x="351.61" y="424.47" width="120.1" height="62.95" rx="12.09" ry="12.09" transform="matrix(0.98, 0.17, -0.17, 0.98, 85.52, -64.61)"/><rect class="cls-3" x="347.84" y="424.24" width="127.03" height="38.93" rx="6.56" ry="6.56" transform="translate(-23.24 22.74) rotate(-3.08)"/><path class="cls-2" d="M463.69,450.29H363c-14.18,0-14.18,0-14.18-13.39V295.71c0-6.65,5.17-12.28,12.14-13.25,13.86-1.91,37.53,3.06,52.69,3.06,16.58,0,41.16-4.55,54.83-2.65a10.58,10.58,0,0,1,9.39,10.27V436.9C477.88,450.29,477.88,450.29,463.69,450.29Z"/><rect class="cls-4" x="404.18" y="295.03" width="18.27" height="13.7" rx="5.12" ry="5.12"/><path class="cls-4" d="M413.09,307.35c4.74,0,7.56,17.43,7.6,23.19l4.24,69C425,410,417.16,422.69,414,422.72s-11.16-12.56-11.24-23l3.16-69C405.85,323.27,408.35,307.39,413.09,307.35Z"/><path class="cls-2" d="M412.61,285l-15.93,14.76L385.43,283s12.34,1.07,13.39,1.21C400.32,284.38,412.61,285,412.61,285Z"/><path class="cls-4" d="M412.7,285l15.93,14.76L439.87,283s-12.34,1.07-13.39,1.21C425,284.38,412.7,285,412.7,285Z"/><circle class="cls-1" cx="388.01" cy="214.78" r="59.24" transform="translate(-44.21 115.44) rotate(-16.02)"/><path class="cls-1" d="M388,275.05a60.28,60.28,0,1,1,16.61-2.35A60.36,60.36,0,0,1,388,275.05Zm0-118.49a58.22,58.22,0,1,0,56,42.15h0A58.32,58.32,0,0,0,388,156.56Z"/><path class="cls-2" d="M341.64,249.3,334.58,224l33.74-9.41,7.06,25.3Zm-2-22.46,4.86,17.41L370.33,237l-4.86-17.41Z"/><path class="cls-2" d="M384.86,238.91l-7.94-28.47,35.86-10,7.94,28.47ZM382,213.29l5.74,20.57,28-7.8-5.74-20.57Z"/><rect class="cls-2" x="371.19" y="224.39" width="11.79" height="4.1" transform="translate(-46.97 109.63) rotate(-15.58)"/><path class="cls-3" d="M259,336.25A79.33,79.33,0,0,0,240.86,447l22.58-16.23a51.53,51.53,0,0,1,11.77-71.92c22.29-16,55.32-11.35,71.93,11.76a79.34,79.34,0,0,0,137.14-78,13.74,13.74,0,0,0-20.61-5.77l-.35.25a13.87,13.87,0,0,0-4.43,16.87,51.62,51.62,0,0,1-26.66,67.6c-22.37,10.08-48.49,2.06-63-17.75C343.7,318.74,298.79,307.63,259,336.25Z"/><rect class="cls-2" x="213.26" y="424.78" width="14.95" height="108.12" rx="6.31" ry="6.31" transform="matrix(-0.08, -1, 1, -0.08, -240.07, 735.12)"/><rect class="cls-2" x="91.8" y="337.92" width="124.59" height="182.73" rx="23.54" ry="23.54" transform="matrix(0.08, 1, -1, 0.08, 570.52, 243.2)"/><circle class="cls-3" cx="154.76" cy="429.48" r="11.06" transform="translate(-16.36 6.25) rotate(-2.2)"/><circle class="cls-2" cx="348.28" cy="237.56" r="3.86" transform="translate(-40.04 73.43) rotate(-11.39)"/><circle class="cls-2" cx="390.76" cy="227.55" r="4.1" transform="translate(-37.23 81.61) rotate(-11.39)"/><path class="cls-2" d="M306,196.82a15.7,15.7,0,0,0-1,7.07c.56,6.55,2.86,21.61,12.11,21.61,8.2,0,92.2-43,93.38-47.21,2.09-7.38-2.45-16,4.75-19.68,5.19-2.68,2.39-11-1.71-13.82-5.84-4-11.26-8.41-29.54-8.36-32.73.09-48.45,23.51-58.69,37.85C320.31,181.27,309.77,187.1,306,196.82Z"/><path class="cls-2" d="M302.46,167.1a10.34,10.34,0,0,0-3.52,3.12c-2.53,3.51-7.85,12-3.24,16,4.09,3.52,64.49,18.13,66.87,16.55,4.21-2.79,5.63-9,10.83-7.78,3.74.89,5.93-4.47,5.08-7.63-1.2-4.5-2-9-11.15-16.86-16.37-14-34.27-9.08-45.54-6.32C316.3,165.51,308.54,163.89,302.46,167.1Z"/><path class="cls-2" d="M345.91,114.12a12,12,0,0,0-5.1,1.92c-4.19,2.75-13.48,9.77-10.12,16,3,5.51,62.38,46.33,65.62,45.61,5.72-1.28,9.83-7.44,15-4,3.69,2.51,8.27-2.39,8.66-6.16.56-5.37,1.57-10.62-5.11-22.89-11.94-22-33.38-24-46.74-25.7C361.57,118.13,353.83,113.16,345.91,114.12Z"/><path class="cls-2" d="M296.31,136a9.53,9.53,0,0,0-3.41,2.67c-2.52,3.08-7.9,10.61-3.87,14.52,3.56,3.47,58.3,20.29,60.59,19,4-2.33,5.68-8,10.39-6.55,3.39,1,5.7-3.78,5.1-6.73-.85-4.2-1.34-8.42-9.31-16.13-14.27-13.81-31-10.27-41.54-8.37C309.13,135.33,302.08,133.4,296.31,136Z"/><path class="cls-2" d="M458.48,192.72c-17.11-13.69-18.13-38-30.84-44.4-10.74-5.45-19.19,8-23.51,23.36-3,10.79,30.45,47,48.2,43.57C476,210.71,468.72,200.92,458.48,192.72Z"/><path class="cls-2" d="M454.48,151.93c-18.15,3.55-34.34-9-45.42-4.35-9.37,3.95-5.34,16.7,2.22,27.88,5.3,7.83,46.87,6,54.36-7.28C475.63,150.45,465.35,149.8,454.48,151.93Z"/><path class="cls-2" d="M418.67,172.15s.63,19.58-21,44.25c-3.22,3.67.82-2.68-.39-13.67-.29-2.69-5.5,9.73-8.61,13.42-4.09,4.84.28-5-1.37-12.58-.33-1.5-14.17,3-14.17,3l7.89-22.5Z"/><path class="cls-2" d="M393.56,189s-3.38,19.3-29.62,39c-3.91,2.94,1.35-2.46,2.41-13.46.26-2.7-7.37,8.41-11.17,11.38-5,3.9,1.3-4.82,1.23-12.6,0-1.54-14.49.07-14.49.07L354.24,193Z"/><circle class="cls-1" cx="377.58" cy="280.16" r="32.42" transform="translate(-62.66 115.1) rotate(-16.02)"/><rect class="cls-2" x="363.66" y="247.06" width="10.18" height="20.78"/><rect x="361.04" y="262.19" width="4.1" height="35.7" transform="translate(48.57 613.72) rotate(-84.34)"/><path class="cls-2" d="M166.45,579.19s1.24-4.26,5.07-5,15.15,5.87,20.71,8.67c8.09,4.09,32.06,14.23,37.22,17s7.25,9.67,4.5,13.84l-4.65,7c-2.75,4.16-14.6,7.48-19.83,4l-29.91-23.51C174.35,597.76,164.51,584.16,166.45,579.19Z"/><path class="cls-2" d="M326.67,698.36s-3.23-3-2.18-6.8,12.09-10.86,17.11-14.54c7.31-5.36,27.2-22.14,32-25.5s11.91-2.08,14.37,2.25l4.17,7.33c2.47,4.33.06,16.41-5.38,19.5l-34.51,16C346.8,699.73,330.22,702.35,326.67,698.36Z"/><circle class="cls-3" cx="161.57" cy="288.91" r="3.07" transform="translate(-35.92 23.26) rotate(-7.41)"/><rect class="cls-1" x="120.62" y="252.74" width="10.02" height="20.51" rx="4.76" ry="4.76" transform="translate(327.88 472.86) rotate(161.59)"/></svg>