{
  "accessors": [
    {
      "name": "Popori_F_H0_Body_Skel_1_0_positions",
      "componentType": 5126,
      "count": 3408,
      "min": [
        -3.0046000480651855,
        0,
        -10.673700332641602
      ],
      "max": [
        1.960800051689148,
        29.855600357055664,
        10.673700332641602
      ],
      "type": "VEC3",
      "bufferView": 0,
      "byteOffset": 0
    },
    {
      "name": "Popori_F_H0_Body_Skel_1_0_normals",
      "componentType": 5126,
      "count": 3408,
      "min": [
        -0.9999033808708191,
        -1,
        -0.9998950362205505
      ],
      "max": [
        0.9999907612800598,
        0.9999145269393921,
        0.9998950362205505
      ],
      "type": "VEC3",
      "bufferView": 1,
      "byteOffset": 0
    },
    {
      "name": "Popori_F_H0_Body_Skel_1_0_texcoords",
      "componentType": 5126,
      "count": 3408,
      "min": [
        0.007300000172108412,
        0.00279999990016222
      ],
      "max": [
        1.9914000034332275,
        0.9621999859809875
      ],
      "type": "VEC2",
      "bufferView": 2,
      "byteOffset": 0
    },
    {
      "name": "Popori_F_H0_Body_Skel_1_0_indices",
      "componentType": 5123,
      "count": 15480,
      "min": [
        0
      ],
      "max": [
        3407
      ],
      "type": "SCALAR",
      "bufferView": 3,
      "byteOffset": 0
    },
    {
      "name": "PoPori_F_face00_skel_1_0_positions",
      "componentType": 5126,
      "count": 1151,
      "min": [
        -2.059299945831299,
        29.061899185180664,
        -2.0724000930786133
      ],
      "max": [
        2.1779000759124756,
        34.37519836425781,
        2.0724000930786133
      ],
      "type": "VEC3",
      "bufferView": 0,
      "byteOffset": 40896
    },
    {
      "name": "PoPori_F_face00_skel_1_0_normals",
      "componentType": 5126,
      "count": 1151,
      "min": [
        -0.9989959597587585,
        -0.9999539256095886,
        -0.9940057992935181
      ],
      "max": [
        0.9999437928199768,
        0.9878441691398621,
        0.9940057992935181
      ],
      "type": "VEC3",
      "bufferView": 1,
      "byteOffset": 40896
    },
    {
      "name": "PoPori_F_face00_skel_1_0_texcoords",
      "componentType": 5126,
      "count": 1151,
      "min": [
        0.009999999776482582,
        0.012199999764561653
      ],
      "max": [
        0.9837999939918518,
        0.9909999966621399
      ],
      "type": "VEC2",
      "bufferView": 2,
      "byteOffset": 27264
    },
    {
      "name": "PoPori_F_face00_skel_1_0_indices",
      "componentType": 5123,
      "count": 5511,
      "min": [
        0
      ],
      "max": [
        1150
      ],
      "type": "SCALAR",
      "bufferView": 3,
      "byteOffset": 30960
    },
    {
      "name": "PoPori_F_hair00_skel_1_0_positions",
      "componentType": 5126,
      "count": 1359,
      "min": [
        -5.029699802398682,
        21.559600830078125,
        -4.607500076293945
      ],
      "max": [
        2.8190999031066895,
        37.394901275634766,
        4.725399971008301
      ],
      "type": "VEC3",
      "bufferView": 0,
      "byteOffset": 54708
    },
    {
      "name": "PoPori_F_hair00_skel_1_0_normals",
      "componentType": 5126,
      "count": 1359,
      "min": [
        -0.9993726015090942,
        -0.6742854714393616,
        -0.9987736344337463
      ],
      "max": [
        0.9985998868942261,
        0.9993482828140259,
        0.9983376860618591
      ],
      "type": "VEC3",
      "bufferView": 1,
      "byteOffset": 54708
    },
    {
      "name": "PoPori_F_hair00_skel_1_0_texcoords",
      "componentType": 5126,
      "count": 1359,
      "min": [
        0.0012000000569969416,
        0.004800000227987766
      ],
      "max": [
        0.7343999743461609,
        0.9876999855041504
      ],
      "type": "VEC2",
      "bufferView": 2,
      "byteOffset": 36472
    },
    {
      "name": "PoPori_F_hair00_skel_1_0_indices",
      "componentType": 5123,
      "count": 6081,
      "min": [
        0
      ],
      "max": [
        1358
      ],
      "type": "SCALAR",
      "bufferView": 3,
      "byteOffset": 41984
    },
    {
      "name": "Dummy_Tail_1_0_positions",
      "componentType": 5126,
      "count": 32,
      "min": [
        -0.06729999929666519,
        20.060199737548828,
        0
      ],
      "max": [
        0.47440001368522644,
        20.601900100708008,
        4
      ],
      "type": "VEC3",
      "bufferView": 0,
      "byteOffset": 71016
    },
    {
      "name": "Dummy_Tail_1_0_normals",
      "componentType": 5126,
      "count": 32,
      "min": [
        -0.9944058060646057,
        -0.9944058060646057,
        -0.7071126103401184
      ],
      "max": [
        0.9944058060646057,
        0.9944058060646057,
        1
      ],
      "type": "VEC3",
      "bufferView": 1,
      "byteOffset": 71016
    },
    {
      "name": "Dummy_Tail_1_0_indices",
      "componentType": 5123,
      "count": 42,
      "min": [
        0
      ],
      "max": [
        31
      ],
      "type": "SCALAR",
      "bufferView": 3,
      "byteOffset": 54148
    },
    {
      "name": "Tail_00_1_0_positions",
      "componentType": 5126,
      "count": 32,
      "min": [
        -5.111100196838379,
        18.155000686645508,
        -0.7400000095367432
      ],
      "max": [
        -1.6475000381469727,
        20.272899627685547,
        -0.11810000240802765
      ],
      "type": "VEC3",
      "bufferView": 0,
      "byteOffset": 71400
    },
    {
      "name": "Tail_00_1_0_normals",
      "componentType": 5126,
      "count": 32,
      "min": [
        -0.8622666001319885,
        -0.894275963306427,
        -0.988348126411438
      ],
      "max": [
        0.9632716178894043,
        0.9644207954406738,
        0.9994571805000305
      ],
      "type": "VEC3",
      "bufferView": 1,
      "byteOffset": 71400
    },
    {
      "name": "Tail_00_1_0_indices",
      "componentType": 5123,
      "count": 42,
      "min": [
        0
      ],
      "max": [
        31
      ],
      "type": "SCALAR",
      "bufferView": 3,
      "byteOffset": 54232
    },
    {
      "name": "Tail_01_1_0_positions",
      "componentType": 5126,
      "count": 32,
      "min": [
        -5.415599822998047,
        15.029999732971191,
        -0.503600001335144
      ],
      "max": [
        -3.8729000091552734,
        18.797100067138672,
        -0.0034000000450760126
      ],
      "type": "VEC3",
      "bufferView": 0,
      "byteOffset": 71784
    },
    {
      "name": "Tail_01_1_0_normals",
      "componentType": 5126,
      "count": 32,
      "min": [
        -0.9584965705871582,
        -0.9395300149917603,
        -0.9968433976173401
      ],
      "max": [
        0.9175128936767578,
        0.9061758518218994,
        0.9991816282272339
      ],
      "type": "VEC3",
      "bufferView": 1,
      "byteOffset": 71784
    },
    {
      "name": "Tail_01_1_0_indices",
      "componentType": 5123,
      "count": 42,
      "min": [
        0
      ],
      "max": [
        31
      ],
      "type": "SCALAR",
      "bufferView": 3,
      "byteOffset": 54316
    },
    {
      "name": "Tail_02_1_0_positions",
      "componentType": 5126,
      "count": 32,
      "min": [
        -5.6209001541137695,
        11.44909954071045,
        -0.4345000088214874
      ],
      "max": [
        -5.019700050354004,
        15.435999870300293,
        0.065700002014637
      ],
      "type": "VEC3",
      "bufferView": 0,
      "byteOffset": 72168
    },
    {
      "name": "Tail_02_1_0_normals",
      "componentType": 5126,
      "count": 32,
      "min": [
        -0.9996261596679688,
        -0.9960648417472839,
        -0.9970819354057312
      ],
      "max": [
        0.9891813397407532,
        0.7659305930137634,
        0.9990527629852295
      ],
      "type": "VEC3",
      "bufferView": 1,
      "byteOffset": 72168
    },
    {
      "name": "Tail_02_1_0_indices",
      "componentType": 5123,
      "count": 42,
      "min": [
        0
      ],
      "max": [
        31
      ],
      "type": "SCALAR",
      "bufferView": 3,
      "byteOffset": 54400
    },
    {
      "name": "Tail_03_1_0_positions",
      "componentType": 5126,
      "count": 32,
      "min": [
        -7.963099956512451,
        8.443400382995605,
        -0.3806000053882599
      ],
      "max": [
        -5.4984002113342285,
        11.860099792480469,
        0.11969999969005585
      ],
      "type": "VEC3",
      "bufferView": 0,
      "byteOffset": 72552
    },
    {
      "name": "Tail_03_1_0_normals",
      "componentType": 5126,
      "count": 32,
      "min": [
        -0.850795328617096,
        -0.8191169500350952,
        -0.9985736608505249
      ],
      "max": [
        0.9848126769065857,
        0.9847933053970337,
        0.9980988502502441
      ],
      "type": "VEC3",
      "bufferView": 1,
      "byteOffset": 72552
    },
    {
      "name": "Tail_03_1_0_indices",
      "componentType": 5123,
      "count": 42,
      "min": [
        0
      ],
      "max": [
        31
      ],
      "type": "SCALAR",
      "bufferView": 3,
      "byteOffset": 54484
    },
    {
      "name": "Tail_04_1_0_positions",
      "componentType": 5126,
      "count": 32,
      "min": [
        -11.233599662780762,
        6.14300012588501,
        -0.3977000117301941
      ],
      "max": [
        -7.942599773406982,
        8.51990032196045,
        0.10249999910593033
      ],
      "type": "VEC3",
      "bufferView": 0,
      "byteOffset": 72936
    },
    {
      "name": "Tail_04_1_0_normals",
      "componentType": 5126,
      "count": 32,
      "min": [
        -0.8191169500350952,
        -0.8520183563232422,
        -0.9984444975852966
      ],
      "max": [
        0.9847955703735352,
        0.9848104119300842,
        0.9979485869407654
      ],
      "type": "VEC3",
      "bufferView": 1,
      "byteOffset": 72936
    },
    {
      "name": "Tail_04_1_0_indices",
      "componentType": 5123,
      "count": 42,
      "min": [
        0
      ],
      "max": [
        31
      ],
      "type": "SCALAR",
      "bufferView": 3,
      "byteOffset": 54568
    },
    {
      "name": "Popori_F_Tail00_Skel_1_0_positions",
      "componentType": 5126,
      "count": 370,
      "min": [
        -11.862099647521973,
        5.763000011444092,
        -2.567199945449829
      ],
      "max": [
        -1.7283999919891357,
        20.45989990234375,
        2.324899911880493
      ],
      "type": "VEC3",
      "bufferView": 0,
      "byteOffset": 73320
    },
    {
      "name": "Popori_F_Tail00_Skel_1_0_normals",
      "componentType": 5126,
      "count": 370,
      "min": [
        -0.9563601016998291,
        -0.9448832273483276,
        -0.9983909130096436
      ],
      "max": [
        0.9988340139389038,
        0.8377178311347961,
        0.9969713687896729
      ],
      "type": "VEC3",
      "bufferView": 1,
      "byteOffset": 73320
    },
    {
      "name": "Popori_F_Tail00_Skel_1_0_texcoords",
      "componentType": 5126,
      "count": 370,
      "min": [
        0.4553999900817871,
        0.014499999582767487
      ],
      "max": [
        0.9980999827384949,
        0.9567999839782715
      ],
      "type": "VEC2",
      "bufferView": 2,
      "byteOffset": 47344
    },
    {
      "name": "Popori_F_Tail00_Skel_1_0_indices",
      "componentType": 5123,
      "count": 1203,
      "min": [
        0
      ],
      "max": [
        369
      ],
      "type": "SCALAR",
      "bufferView": 3,
      "byteOffset": 54652
    }
  ],
  "asset": {
    "generator": "obj2gltf",
    "version": "2.0"
  },
  "buffers": [
    {
      "name": "bb",
      "byteLength": 262884,
      "uri": "data:application/octet-stream;base64,"
    }
  ],
  "bufferViews": [
    {
      "name": "bufferView_0",
      "buffer": 0,
      "byteLength": 77760,
      "byteOffset": 0,
      "byteStride": 12,
      "target": 34962
    },
    {
      "name": "bufferView_1",
      "buffer": 0,
      "byteLength": 77760,
      "byteOffset": 77760,
      "byteStride": 12,
      "target": 34962
    },
    {
      "name": "bufferView_2",
      "buffer": 0,
      "byteLength": 50304,
      "byteOffset": 155520,
      "byteStride": 8,
      "target": 34962
    },
    {
      "name": "bufferView_3",
      "buffer": 0,
      "byteLength": 57060,
      "byteOffset": 205824,
      "target": 34963
    }
  ],
  "materials": [
    {
      "name": "01___Default",
      "pbrMetallicRoughness": {
        "baseColorFactor": [
          0.5,
          0.5,
          0.5,
          1
        ],
        "metallicFactor": 0,
        "roughnessFactor": 1
      },
      "emissiveFactor": [
        0,
        0,
        0
      ],
      "alphaMode": "OPAQUE",
      "doubleSided": false
    },
    {
      "name": "02___Default",
      "pbrMetallicRoughness": {
        "baseColorFactor": [
          0.5,
          0.5,
          0.5,
          1
        ],
        "metallicFactor": 0,
        "roughnessFactor": 1
      },
      "emissiveFactor": [
        0,
        0,
        0
      ],
      "alphaMode": "OPAQUE",
      "doubleSided": false
    },
    {
      "name": "03___Default",
      "pbrMetallicRoughness": {
        "baseColorFactor": [
          0.5,
          0.5,
          0.5,
          1
        ],
        "metallicFactor": 0,
        "roughnessFactor": 1
      },
      "emissiveFactor": [
        0,
        0,
        0
      ],
      "alphaMode": "OPAQUE",
      "doubleSided": false
    },
    {
      "name": "wire_174186203",
      "pbrMetallicRoughness": {
        "baseColorFactor": [
          0.5,
          0.5,
          0.5,
          1
        ],
        "metallicFactor": 0,
        "roughnessFactor": 1
      },
      "emissiveFactor": [
        0,
        0,
        0
      ],
      "alphaMode": "OPAQUE",
      "doubleSided": false
    },
    {
      "name": "03___Default-2",
      "pbrMetallicRoughness": {
        "baseColorFactor": [
          0.5,
          0.5,
          0.5,
          1
        ],
        "metallicFactor": 0,
        "roughnessFactor": 1
      },
      "emissiveFactor": [
        0,
        0,
        0
      ],
      "alphaMode": "OPAQUE",
      "doubleSided": false
    }
  ],
  "meshes": [
    {
      "name": "Popori_F_H0_Body_Skel_1",
      "primitives": [
        {
          "attributes": {
            "POSITION": 0,
            "NORMAL": 1,
            "TEXCOORD_0": 2
          },
          "indices": 3,
          "material": 0,
          "mode": 4
        }
      ]
    },
    {
      "name": "PoPori_F_face00_skel_1",
      "primitives": [
        {
          "attributes": {
            "POSITION": 4,
            "NORMAL": 5,
            "TEXCOORD_0": 6
          },
          "indices": 7,
          "material": 1,
          "mode": 4
        }
      ]
    },
    {
      "name": "PoPori_F_hair00_skel_1",
      "primitives": [
        {
          "attributes": {
            "POSITION": 8,
            "NORMAL": 9,
            "TEXCOORD_0": 10
          },
          "indices": 11,
          "material": 2,
          "mode": 4
        }
      ]
    },
    {
      "name": "Dummy_Tail_1",
      "primitives": [
        {
          "attributes": {
            "POSITION": 12,
            "NORMAL": 13
          },
          "indices": 14,
          "material": 3,
          "mode": 4
        }
      ]
    },
    {
      "name": "Tail_00_1",
      "primitives": [
        {
          "attributes": {
            "POSITION": 15,
            "NORMAL": 16
          },
          "indices": 17,
          "material": 3,
          "mode": 4
        }
      ]
    },
    {
      "name": "Tail_01_1",
      "primitives": [
        {
          "attributes": {
            "POSITION": 18,
            "NORMAL": 19
          },
          "indices": 20,
          "material": 3,
          "mode": 4
        }
      ]
    },
    {
      "name": "Tail_02_1",
      "primitives": [
        {
          "attributes": {
            "POSITION": 21,
            "NORMAL": 22
          },
          "indices": 23,
          "material": 4,
          "mode": 4
        }
      ]
    },
    {
      "name": "Tail_03_1",
      "primitives": [
        {
          "attributes": {
            "POSITION": 24,
            "NORMAL": 25
          },
          "indices": 26,
          "material": 3,
          "mode": 4
        }
      ]
    },
    {
      "name": "Tail_04_1",
      "primitives": [
        {
          "attributes": {
            "POSITION": 27,
            "NORMAL": 28
          },
          "indices": 29,
          "material": 3,
          "mode": 4
        }
      ]
    },
    {
      "name": "Popori_F_Tail00_Skel_1",
      "primitives": [
        {
          "attributes": {
            "POSITION": 30,
            "NORMAL": 31,
            "TEXCOORD_0": 32
          },
          "indices": 33,
          "material": 2,
          "mode": 4
        }
      ]
    }
  ],
  "nodes": [
    {
      "name": "Popori_F_H0_Body_Skel",
      "mesh": 0
    },
    {
      "name": "PoPori_F_face00_skel",
      "mesh": 1
    },
    {
      "name": "PoPori_F_hair00_skel",
      "mesh": 2
    },
    {
      "name": "Dummy_Tail",
      "mesh": 3
    },
    {
      "name": "Tail_00",
      "mesh": 4
    },
    {
      "name": "Tail_01",
      "mesh": 5
    },
    {
      "name": "Tail_02",
      "mesh": 6
    },
    {
      "name": "Tail_03",
      "mesh": 7
    },
    {
      "name": "Tail_04",
      "mesh": 8
    },
    {
      "name": "Popori_F_Tail00_Skel",
      "mesh": 9
    }
  ],
  "scene": 0,
  "scenes": [
    {
      "nodes": [
        0,
        1,
        2,
        3,
        4,
        5,
        6,
        7,
        8,
        9
      ]
    }
  ]
}
