<svg id="图层_1" data-name="图层 1" xmlns="http://www.w3.org/2000/svg" viewBox="0 0 750 1334"><defs><style>.cls-1{fill:#084dba;}.cls-2{fill:#ffd1d4;}.cls-3{fill:#1e1e1e;}.cls-10,.cls-4,.cls-6{fill:#f7f8f9;}.cls-5{fill:none;stroke:#f36;stroke-miterlimit:10;}.cls-6{font-size:27.92px;font-family:GillSans, Gill Sans;}.cls-7{letter-spacing:-0.02em;}.cls-8{letter-spacing:-0.03em;}.cls-9{letter-spacing:-0.02em;}.cls-10{font-size:23.93px;font-family:FZLTZHK--GBK1-0, Lantinghei SC;font-weight:700;}.cls-11{letter-spacing:-0.01em;}.cls-12{letter-spacing:-0.1em;}.cls-13{letter-spacing:-0.09em;}.cls-14{letter-spacing:-0.01em;}.cls-15{letter-spacing:-0.1em;}.cls-16{letter-spacing:0em;}.cls-17{letter-spacing:-0.1em;}.cls-18{letter-spacing:-0.09em;}</style></defs><title>程序员</title><rect class="cls-1" x="0.5" y="-0.5" width="750" height="1334"/><path class="cls-2" d="M161.83,398.34c.73-.4-.69-27.4-.69-27.4a1.61,1.61,0,1,1,3.23-.08l.68,27c0,1.21.75,3.18,1.8,3.77.59.33,2.55-.44,2.56-1.58l-.75-29.6a1.61,1.61,0,1,1,3.23-.08l.72,28.62a3.42,3.42,0,0,0,2.42,2.49c.81.08,1.83-1.94,2.32-2.78a2.52,2.52,0,0,0,.34-1.34L177,369.88a1.61,1.61,0,0,1,3.23-.08s-1.22,26.74.67,26.4c1.45-.35,6.67-13.74,6.7-19.75l.12-22.64a11.66,11.66,0,0,0-11.33-11.9L166,341.85a11.41,11.41,0,0,0-11,9s0,9.67-.37,14.45l-.06,11c0,6.51,2.8,16.16,6.54,21.34C161.33,397.88,161.58,398.44,161.83,398.34Z"/><path class="cls-3" d="M138.64,366.74h62.62a7.06,7.06,0,0,1,7.06,7.06v27.93a7.06,7.06,0,0,1-7.06,7.06H138.38a6.8,6.8,0,0,1-6.8-6.8V373.8a7.06,7.06,0,0,1,7.06-7.06Z" transform="translate(113.9 -31.88) rotate(16.06)"/><path class="cls-4" d="M144.39,370.65h45.94a5.18,5.18,0,0,1,5.18,5.18v20.49a5.18,5.18,0,0,1-5.18,5.18H144.2a5,5,0,0,1-5-5V375.82A5.18,5.18,0,0,1,144.39,370.65Z" transform="translate(113.33 -31.23) rotate(16.06)"/><rect class="cls-2" x="290.35" y="577.44" width="10.39" height="21.25" rx="4.93" ry="4.93" transform="translate(457.16 1226.07) rotate(-167.53)"/><path class="cls-2" d="M313.62,611.31c.47-.57-9.53-22.32-9.53-22.32a1.43,1.43,0,1,1,2.63-1.12l9.37,22c.42,1,1.65,2.37,2.71,2.51.6.08,2-1.19,1.59-2.14l-10.29-24.1a1.43,1.43,0,1,1,2.63-1.12l9.95,23.31a3,3,0,0,0,2.8,1.26c.69-.2.87-2.19,1-3a2.23,2.23,0,0,0-.16-1.21l-9.54-22.35a1.43,1.43,0,0,1,2.63-1.12s7.74,22.4,9.18,21.5c1.08-.76,1-13.48-.94-18.44l-7.3-18.66a10.32,10.32,0,0,0-13.21-6.09l-8.53,3.34a10.1,10.1,0,0,0-6.11,11s3.13,8,4.42,12l3.54,9c2.1,5.37,7.58,12.38,12.36,15.42C313.05,611.1,313.44,611.48,313.62,611.31Z"/><path class="cls-4" d="M243.59,252.79a92.86,92.86,0,0,0-87.84,97.63l32.5-1.72a60.32,60.32,0,0,1,57.05-63.42c32.08-1.69,61.68,23.79,63.43,57.05a92.87,92.87,0,0,0,184.39,10.11,16.32,16.32,0,0,0-16.92-19h0A16.31,16.31,0,0,0,461,347.19a60.34,60.34,0,0,1-57,50.48c-33.37,1.42-60.64-25.37-62.88-58.69C337.75,288.7,300.62,249.78,243.59,252.79Z"/><path class="cls-3" d="M491.59,545c4.06-8.29-.93-18-11.07-21.57h0c-11.92,0-25.29,7.49-29.72,16.54L390.25,663.74c-2.28,4.66-5.3,7.12-5,14,.27,7.18,3.4,6.64,4.22,10.32L421,829.74c2,8.92,12.4,15.06,23.15,13.66h0c10.75-1.41,17.91-9.86,15.93-18.77,0,0-30.09-133.58-33.39-145.72a2.45,2.45,0,0,1,.18-1.76C432.59,665.53,491.59,545,491.59,545Z"/><polygon class="cls-3" points="422.2 832.95 461.3 826.73 466.19 847.13 427.09 853.35 422.2 832.95"/><path class="cls-3" d="M544.26,640c9.27-1.12,14.88-10.63,12.47-21.14h0c-6.46-10-20-17.21-30.13-16L388.24,619.6c-5.21.63-8.93-.57-14.68,3.42-6,4.16-3.84,6.5-6.55,9.21L262.93,736.35c-6.55,6.56-6.2,18.7.79,27h0c7,8.29,18.06,9.7,24.62,3.15,0,0,98-98.46,106.54-107.88a2.52,2.52,0,0,1,1.6-.82C409.49,656.26,544.26,640,544.26,640Z"/><polygon class="cls-3" points="260.84 739.13 287.2 768.67 272.4 783.96 246.04 754.42 260.84 739.13"/><rect class="cls-2" x="476.01" y="345.9" width="29.53" height="60.31" transform="translate(-82.99 145.69) rotate(-15.59)"/><rect class="cls-3" x="421.86" y="555.41" width="140.58" height="73.68" rx="14.15" ry="14.15" transform="translate(110.44 -76.53) rotate(10.01)"/><rect class="cls-4" x="417.45" y="555.15" width="148.69" height="45.57" rx="7.68" ry="7.68" transform="translate(-30.33 27.25) rotate(-3.08)"/><path class="cls-3" d="M553.06,585.64H435.2c-16.6,0-16.6,0-16.6-15.67V404.7c0-7.78,6.05-14.38,14.22-15.51,16.22-2.24,43.93,3.58,61.68,3.58,19.41,0,48.18-5.32,64.18-3.1a12.39,12.39,0,0,1,11,12V570C569.66,585.64,569.66,585.64,553.06,585.64Z"/><rect class="cls-1" x="483.4" y="403.91" width="21.38" height="16.03" rx="6" ry="6"/><path class="cls-1" d="M493.83,418.33c5.55,0,8.85,20.4,8.9,27.15l5,80.73c.1,12.26-9.1,27.14-12.8,27.17s-13.06-14.7-13.16-27l3.69-80.79C485.35,437,488.28,418.37,493.83,418.33Z"/><path class="cls-3" d="M493.26,392.14l-18.65,17.28-13.16-19.65s14.44,1.25,15.68,1.42C478.88,391.43,493.26,392.14,493.26,392.14Z"/><path class="cls-1" d="M493.37,392.14,512,409.42l13.16-19.65S510.74,391,509.5,391.2C507.75,391.43,493.37,392.14,493.37,392.14Z"/><circle class="cls-2" cx="464.46" cy="309.97" r="69.34" transform="translate(-67.51 140.23) rotate(-16.02)"/><path class="cls-2" d="M464.49,380.52a70.56,70.56,0,1,1,19.44-2.75A70.66,70.66,0,0,1,464.49,380.52Zm-.06-138.7A68.15,68.15,0,1,0,530,291.16h0A68.27,68.27,0,0,0,464.44,241.82Z"/><path class="cls-3" d="M410.19,350.37l-8.27-29.62,39.5-11,8.26,29.62Zm-2.35-26.28,5.68,20.38L443.77,336l-5.68-20.38Z"/><path class="cls-3" d="M460.78,338.21l-9.29-33.32,42-11.71,9.29,33.32Zm-3.39-30,6.72,24.08,32.74-9.13-6.72-24.08Z"/><rect class="cls-3" x="444.78" y="321.22" width="13.8" height="4.79" transform="translate(-70.34 133.24) rotate(-15.58)"/><path class="cls-4" d="M313.43,452.15a92.86,92.86,0,0,0-21.2,129.61l26.43-19a60.32,60.32,0,0,1,13.77-84.19c26.09-18.75,64.76-13.28,84.2,13.76A92.87,92.87,0,0,0,577.15,401,16.08,16.08,0,0,0,553,394.24l-.41.29a16.23,16.23,0,0,0-5.19,19.75,60.42,60.42,0,0,1-31.21,79.12c-26.18,11.8-56.76,2.41-73.7-20.78C412.6,431.65,360,418.65,313.43,452.15Z"/><rect class="cls-3" x="259.92" y="555.78" width="17.5" height="126.56" rx="7.39" ry="7.39" transform="translate(-328.34 933.72) rotate(-94.33)"/><rect class="cls-3" x="117.75" y="454.11" width="145.84" height="213.89" rx="27.56" ry="27.56" transform="translate(735.72 328.55) rotate(85.67)"/><circle class="cls-4" cx="191.43" cy="561.28" r="12.94" transform="translate(-21.39 7.76) rotate(-2.2)"/><circle class="cls-3" cx="417.97" cy="336.63" r="4.52" transform="translate(-58.23 89.13) rotate(-11.39)"/><circle class="cls-3" cx="467.68" cy="324.92" r="4.8" transform="translate(-54.94 98.71) rotate(-11.39)"/><path class="cls-3" d="M368.42,288.95a18.38,18.38,0,0,0-1.12,8.28c.66,7.66,3.35,25.29,14.18,25.29,9.59,0,107.92-50.36,109.3-55.26,2.44-8.64-2.87-18.68,5.57-23,6.08-3.14,2.8-12.89-2-16.17-6.83-4.67-13.18-9.85-34.58-9.79-38.31.11-56.71,27.52-68.7,44.3C385.23,270.74,372.88,277.56,368.42,288.95Z"/><path class="cls-3" d="M364.32,254.16a12.1,12.1,0,0,0-4.12,3.65c-3,4.11-9.19,14.06-3.79,18.71,4.79,4.12,75.49,21.22,78.28,19.37,4.93-3.26,6.59-10.55,12.67-9.11,4.38,1,6.94-5.23,5.95-8.93-1.4-5.26-2.35-10.57-13.05-19.74-19.16-16.4-40.12-10.63-53.31-7.4C380.53,252.3,371.44,250.4,364.32,254.16Z"/><path class="cls-3" d="M415.19,192.15a14,14,0,0,0-6,2.25c-4.91,3.22-15.78,11.43-11.85,18.71,3.48,6.45,73,54.23,76.81,53.38,6.69-1.5,11.51-8.71,17.5-4.62,4.32,2.94,9.68-2.8,10.14-7.21.66-6.28,1.83-12.43-6-26.79-14-25.7-39.08-28.12-54.71-30.08C433.52,196.83,424.46,191,415.19,192.15Z"/><path class="cls-3" d="M357.13,217.77a11.15,11.15,0,0,0-4,3.13c-3,3.61-9.24,12.42-4.53,17,4.17,4.06,68.25,23.75,70.92,22.21,4.72-2.73,6.65-9.34,12.17-7.67,4,1.2,6.67-4.42,6-7.88-1-4.92-1.57-9.86-10.9-18.89-16.71-16.16-36.31-12-48.62-9.79C372.14,217,363.88,214.71,357.13,217.77Z"/><path class="cls-3" d="M547,284.15c-20-16-21.22-44.42-36.1-52-12.58-6.38-22.46,9.31-27.51,27.34-3.54,12.63,35.64,55,56.42,51C567.47,305.2,558.95,293.74,547,284.15Z"/><path class="cls-3" d="M542.27,236.4c-21.24,4.16-40.19-10.56-53.16-5.1-11,4.62-6.26,19.55,2.6,32.64,6.21,9.17,54.87,7,63.63-8.52C567,234.67,555,233.91,542.27,236.4Z"/><path class="cls-3" d="M500.36,260.07s.74,22.92-24.62,51.8c-3.77,4.3,1-3.14-.45-16-.34-3.15-6.44,11.39-10.08,15.71-4.78,5.66.33-5.83-1.6-14.73-.38-1.76-16.59,3.54-16.59,3.54L456.26,274Z"/><path class="cls-3" d="M471,279.84s-4,22.59-34.67,45.68c-4.57,3.44,1.58-2.88,2.82-15.76.31-3.16-8.63,9.84-13.08,13.32-5.84,4.57,1.52-5.64,1.44-14.74,0-1.8-17,.08-17,.08l14.42-23.9Z"/><circle class="cls-2" cx="452.26" cy="386.5" r="37.95" transform="translate(-89.11 139.84) rotate(-16.02)"/><rect class="cls-3" x="435.97" y="347.75" width="11.91" height="24.33"/><rect x="432.89" y="365.47" width="4.8" height="41.79" transform="translate(7.86 781.4) rotate(-84.34)"/><path class="cls-3" d="M205.13,736.52s1.45-5,5.93-5.88,17.74,6.87,24.24,10.15c9.47,4.78,37.52,16.65,43.57,19.87s8.48,11.32,5.27,16.2l-5.44,8.24c-3.22,4.87-17.1,8.76-23.21,4.72l-35-27.52C214.37,758.26,202.85,742.34,205.13,736.52Z"/><path class="cls-3" d="M392.66,876s-3.78-3.55-2.56-8,14.15-12.71,20-17c8.55-6.28,31.84-25.91,37.45-29.85s13.94-2.44,16.83,2.64l4.88,8.58c2.89,5.07.07,19.21-6.3,22.83L422.59,874C416.23,877.62,396.82,880.68,392.66,876Z"/><circle class="cls-4" cx="199.41" cy="396.73" r="3.6" transform="translate(-49.51 29.04) rotate(-7.41)"/><rect class="cls-2" x="151.48" y="354.4" width="11.73" height="24.01" rx="5.57" ry="5.57" transform="translate(422.33 664.38) rotate(161.59)"/><polygon class="cls-5" points="330.7 1053.33 250.26 1053.33 250.26 972.9 290.62 972.9 330.7 972.9 330.7 1053.33"/><line class="cls-5" x1="250.4" y1="973.14" x2="330.84" y2="1053.58"/><line class="cls-5" x1="250.38" y1="1053.36" x2="330.81" y2="972.93"/><line class="cls-5" x1="290.48" y1="1053.33" x2="290.48" y2="972.9"/><line class="cls-5" x1="250.26" y1="1013.12" x2="330.7" y2="1013.12"/><polygon class="cls-5" points="415.12 1053.33 334.68 1053.33 334.68 972.9 375.03 972.9 415.12 972.9 415.12 1053.33"/><line class="cls-5" x1="334.81" y1="973.14" x2="415.25" y2="1053.58"/><line class="cls-5" x1="334.79" y1="1053.36" x2="415.23" y2="972.93"/><line class="cls-5" x1="374.9" y1="1053.33" x2="374.9" y2="972.9"/><line class="cls-5" x1="334.68" y1="1013.12" x2="415.11" y2="1013.12"/><polygon class="cls-5" points="499.53 1053.33 419.09 1053.33 419.09 972.9 459.45 972.9 499.53 972.9 499.53 1053.33"/><line class="cls-5" x1="419.23" y1="973.14" x2="499.67" y2="1053.58"/><line class="cls-5" x1="419.2" y1="1053.36" x2="499.64" y2="972.93"/><line class="cls-5" x1="459.31" y1="1053.33" x2="459.31" y2="972.9"/><line class="cls-5" x1="419.09" y1="1013.12" x2="499.53" y2="1013.12"/><path class="cls-4" d="M259.52,1008l-3-4.36q3.81,0,7.63-.27h3v-8.72q-7.09.55-9.27.82l-.82-1.36a127.37,127.37,0,0,0,14.18-7.91q.54-.54,1.91-1.64t1.64-1.36q.82-1.36,2.18,0l.82.82q5.45,4.64,6.54,6.54c.55.55.45,1-.27,1.36q-3,.55-5.72,1.09a17.16,17.16,0,0,0-2.18.27,19.55,19.55,0,0,0-2.18.55,15.43,15.43,0,0,1,1.91.82c.36.18.45.55.27,1.09v7.09h.55a35,35,0,0,0,5.72-1.09,26.74,26.74,0,0,1,3.27,3.82.8.8,0,0,1,.27.55,1.11,1.11,0,0,1-.82.27h-2.45q-3.27.27-5.45.27l-1.36.27v5.18a47.47,47.47,0,0,1,7.09,3q3,1.37,1.64,3.82a3.12,3.12,0,0,0-.55.82,32.71,32.71,0,0,1-3.54,6.27,65.28,65.28,0,0,0-4.63-8.72q-.27,9.55-.27,24.81c0,1.27-.37,2.09-1.09,2.45a40.83,40.83,0,0,1-6.82,2.45q-.82.27-.82,0c-.18,0-.27-.37-.27-1.09v-9q.27-8.45.27-13.09a48.94,48.94,0,0,1-9.54,11.18L256,1033.9a114.61,114.61,0,0,0,10.36-26.44h-.82A28.21,28.21,0,0,0,259.52,1008Zm21.81,35.71-3-4.63h18.81v-9.27h-2.45q-1.91,0-7.91.55l-3-4.36a89.13,89.13,0,0,0,9.81-.27h3.82v-8.18h-3.27a75.31,75.31,0,0,0-7.91.55l-2.73-4.63h9.54l16.9-1.09a23,23,0,0,0,2.45-.27,30,30,0,0,0,6.54-.82,17.54,17.54,0,0,1,3.27,4.09.75.75,0,1,1-.55,1.36,51.74,51.74,0,0,0-10.63,0l-6.82.27,1.64.82a2.06,2.06,0,0,0,.82.27c.36,0,.55.55.55,1.64v5.45h1.64a4.45,4.45,0,0,0,1.36-.27,30,30,0,0,0,7.36-1.09q2.18,2.45,3.54,4.09a1.13,1.13,0,0,1,.27.82,1.11,1.11,0,0,1-.82.27h-9.81l-3.54.27-.27,9.54h2.45a70.65,70.65,0,0,0,11.45-1.09,32.9,32.9,0,0,1,3.54,3.54,2.82,2.82,0,0,1,.55,1.09,1.59,1.59,0,0,1-1.09.27,72.84,72.84,0,0,0-9.27,0h-3.82l-20.45.55Q287.32,1043.17,281.33,1043.72Zm30-34.35q-2.18.82-1.91-.82v-2.18h-4.09l-10.36.27a1.26,1.26,0,0,1-.82,1.36q-1.64.55-5.72,2.18c.36-.18-.09,0-1.36.55q-.82.27-.82,0a2.14,2.14,0,0,1-.27-1.36q0-2.45.27-7.91v-7.09q0-5.72-.27-8.72c0-1.09.09-1.64.27-1.64,0-.36.36-.36,1.09,0a60.29,60.29,0,0,1,7.63,3.27l12.81-.82a2.22,2.22,0,0,0,1.64-.55l.27-.27a.79.79,0,0,0,.27-.55,2.12,2.12,0,0,0,.27-.82V984q.27-1.36,1.36-.55a33.12,33.12,0,0,0,3.54,2.18q3.81,2.18,4.91,2.73,1.36.82,1.36,1.36T320,990.83q-1.64.27-1.36,2.18-.27,2.73-.27,12.27,0,1.37-.82,1.64A26.48,26.48,0,0,1,311.32,1009.37Zm-1.64-18.81-14.45.82v11.18l9.27-.27a25.09,25.09,0,0,0,4.91-.55Z"/><path class="cls-4" d="M342.9,1047l-1.09-.82a75.54,75.54,0,0,0,5.45-19.08q1.36-8.72,1.64-27.81a59.92,59.92,0,0,0,0-11.45,2.16,2.16,0,0,1,.27-1.36l1.09.55q2.18.82,6.82,3,1.36.55,1.91.82l17.45-.55a53.49,53.49,0,0,0-5.45-8.18l1.09-.82q9.54,1.37,13.09,3.54,3.27,1.64,1.36,3.54a11,11,0,0,0-1.64,1.36l6-.27q8.72-.82,12.54-1.36,2.18,2.18,3.54,3.82a2.85,2.85,0,0,1,.55,1.09c0,.18-.37.27-1.09.27h-5.18q-5.18.27-6.82.27l-35.71,1.64q0,12-.82,20.45,1.9,0,5.45-.27h4.36l10.9-.82a67,67,0,0,0-6-5.72q-1.64-1.36-2.45-2.18l1.09-1.36A44.76,44.76,0,0,1,383,1008l4.09-5.18-13.36.55q-1.37.27-7.09.82.54-.27-1.36,0L362,1000.1q1.36,0,5.18-.27h4.09l15.81-1.09a4,4,0,0,0,2.45-.82,3.49,3.49,0,0,0,1.64-1.64q.82-1.9,2.45-.27a57.16,57.16,0,0,1,6.54,5.72c1.09.91,1.45,1.64,1.09,2.18q-.27.82-2.45.82a5,5,0,0,0-4.09.82,18.34,18.34,0,0,1-2.73,1.36q-1.37.82-6,3c.36.37.36,1.09,0,2.18v.27l-.27.55a4,4,0,0,1-.82,1.36l9-.55a4.69,4.69,0,0,0,3-1.09,7.29,7.29,0,0,1,1.36-1.91c.36-.72.72-1.09,1.09-1.09.18,0,.63.37,1.36,1.09a76,76,0,0,1,6.82,6.27q1.09,1.09.82,1.91t-1.91.82a5.49,5.49,0,0,0-4.63,1.64q-6.54,5.18-9.54,7.09l-1.91-1.09,4.36-9.54-8.72.27a1.59,1.59,0,0,1,.27,1.09v6.54q0,7.64-.27,11.45a6.85,6.85,0,0,1-3.27,6,23.58,23.58,0,0,0-3.54,3l-1.09,1.09a2.44,2.44,0,0,1-2.45,1.09c-.73-.37-1-1.09-.82-2.18q.54-3.55-1.09-4.09-1.09-.82-8.72-3.82a29.1,29.1,0,0,1-3.54-1.36l.82-1.91,13.63,2.18a106.86,106.86,0,0,0,.55-12v-6.27l-7.63.27q-1.64,0-6.54.27a11.4,11.4,0,0,1-1.91.27l-2.45-3.27Q356.26,1037.18,342.9,1047Z"/><path class="cls-4" d="M458.45,1047l-5.45-7.63q4.91-1.09,4.63-3.54l.27-5.72q-2.73,1.37-9.27,4.09a11.09,11.09,0,0,0-1.36.55,8.14,8.14,0,0,1-2.73,4.09,23.7,23.7,0,0,0-4.91,6q-1.64,2.18-3,1.91-1.09-.27-.82-3.27a3.71,3.71,0,0,0-1.09-3.54l-3.27-2.45c-1.09-.72-2-1.36-2.73-1.91l.55-1.36,8.45,1.91a52.9,52.9,0,0,0,1.91-16.9,57.72,57.72,0,0,1-13.09,10.9l-.82-1.09a113.47,113.47,0,0,0,12.81-20.45,11.63,11.63,0,0,0-.55-2.73,31,31,0,0,0-.55-3.27,79.8,79.8,0,0,1-10.09,5.72l-.82-1.09.82-.82q3.81-4.09,8.45-9.54A29.16,29.16,0,0,0,429,987l1.09-1.36a28.58,28.58,0,0,1,9.27,6.27l1.36-2.45a12,12,0,0,0,2.18-3.54,6.31,6.31,0,0,1,.82-1.36c.18-.72.45-1.09.82-1.09a4,4,0,0,1,1.36.82,40.93,40.93,0,0,1,6.54,4.36c.55.55.45,1.09-.27,1.64a73.52,73.52,0,0,0,8.45-.27h4.09a37.7,37.7,0,0,0-.27-3.82v-3.27a1.57,1.57,0,0,1,.27-1.09,8.58,8.58,0,0,1,1.36.27,58.89,58.89,0,0,1,7.63,1.91c.55.18.72.64.55,1.36v4.09h1.64a16.52,16.52,0,0,0,2.18-.27,38.78,38.78,0,0,0,7.36-.82,35.23,35.23,0,0,1,3.27,3.54c.36.55.18.91-.55,1.09h-8.72l-5.18.27-.27,4.36h3.82q7.63-.82,10.9-1.36.54.55,1.64,1.91a8.58,8.58,0,0,0,1.91,1.91q.27.82,0,.82c0,.18-.27.27-.82.27H486.8q-3.55.27-5.18.27l-22.35,1.09q-2.18,0-8.18.55l-3-4.36h9.81l6.54-.55v-4.36H462a19.91,19.91,0,0,1-4.09.27,36.58,36.58,0,0,1-3.82.27l-2.73-3.54-1.09,1.09a26.83,26.83,0,0,0-2.18,1.91,19.26,19.26,0,0,0-2.45,2.18,15.85,15.85,0,0,1-2.18,1.91q6,11.45,4.91,28.9a23,23,0,0,1-.55,5.45,84.26,84.26,0,0,0,13.09-11.45q-2.18.55-6.27,1.91-1.64.27-1.64-.82.27-2.72.27-10.63v-5.18c0-.91.09-1.36.27-1.36q0-.27.82,0,2.18.82,4.09,1.36l18.26-.82a1.46,1.46,0,0,0,1.64-1.09,1.11,1.11,0,0,0,.27-.82,2.12,2.12,0,0,0,.27-.82l.27-.82c.18-.18.45-.09.82.27a67.31,67.31,0,0,1,7.91,5.45c.72.37,1.09.73,1.09,1.09q0,.27-.82.82c-.91.55-1.27,1.18-1.09,1.91V1017c0,.73-.18,1.18-.55,1.36a48.65,48.65,0,0,1-6.82,2.45c-1.09.55-1.64.37-1.64-.55v-1.36H474l-.55.27a18.05,18.05,0,0,1-1.91,1.64,48.93,48.93,0,0,0,6.54,6,37.21,37.21,0,0,1,2.73-3.54,12.57,12.57,0,0,1,.82-1.36,6.31,6.31,0,0,1,.82-1.36c.55-.55,1-.55,1.36,0q1.9,1.09,6.82,4.36c.55.55.45,1-.27,1.36a13.75,13.75,0,0,0-2.45,1.09,22.72,22.72,0,0,1-5.72,2.45,42.4,42.4,0,0,0,11.72,4.91l-.27,1.64a24.51,24.51,0,0,0-7.09,6.54q-.55,1.64-2.18.55-10.91-6.54-15-20.72-1.91,1.64-4.09,3.27h.27c.91,0,1.27.64,1.09,1.91l-.27,6.27v2.45l7.91-1.91,1.09,2.18-10.63,5.72a39.16,39.16,0,0,0-4.09,2.73A8.74,8.74,0,0,1,458.45,1047Zm14.45-31.9a4.45,4.45,0,0,0,1.36-.27,27.3,27.3,0,0,1,3.82-.27l.27-5.18-16.08.82v5.45Z"/><text class="cls-6" transform="translate(251.72 1081.12)">P<tspan class="cls-7" x="14.23" y="0">r</tspan><tspan x="24.59" y="0">ogrammer Mon</tspan><tspan class="cls-8" x="201.26" y="0">k</tspan><tspan class="cls-9" x="213.8" y="0">e</tspan><tspan x="226.74" y="0">y</tspan></text><text class="cls-10" transform="translate(247.73 958.5)"><tspan class="cls-11">c</tspan><tspan class="cls-12" x="15.02" y="0">h</tspan><tspan class="cls-13" x="28.71" y="0">é</tspan><tspan class="cls-14" x="50.39" y="0">n</tspan><tspan x="66.28" y="0" xml:space="preserve">g    </tspan><tspan class="cls-15" x="108.71" y="0">x</tspan><tspan x="121.38" y="0" xml:space="preserve">ù    </tspan><tspan class="cls-16" x="171.85" y="0">y</tspan><tspan class="cls-17" x="186.24" y="0">u</tspan><tspan class="cls-18" x="199.87" y="0">á</tspan><tspan x="221.69" y="0">n </tspan></text></svg>