<svg id="图层_1" data-name="图层 1" xmlns="http://www.w3.org/2000/svg" xmlns:xlink="http://www.w3.org/1999/xlink" viewBox="0 0 7370 1334"><defs><style>.cls-1{fill:#540050}.cls-2{fill:#410194}.cls-3{fill:#ffa630}.cls-4{opacity:.2}.cls-19,.cls-20,.cls-21,.cls-22,.cls-23,.cls-24,.cls-25,.cls-26,.cls-31{fill:none;stroke-linecap:round}.cls-19,.cls-20,.cls-21,.cls-22,.cls-23,.cls-24,.cls-25,.cls-26{stroke-linejoin:round}.cls-19{stroke-width:10px}.cls-6{letter-spacing:.05em}.cls-7{opacity:.25}.cls-20{stroke-width:8.5px}.cls-9{opacity:.3}.cls-22{stroke-width:7px}.cls-21,.cls-23{stroke-width:5.5px}.cls-24{stroke-width:4px}.cls-25{stroke-width:2.5px}.cls-31{stroke-miterlimit:10}.cls-17{fill:#f6f7f8}.cls-19,.cls-20,.cls-21{stroke:#841a89}.cls-22{stroke:#923295}.cls-23{stroke:#a24fa4}.cls-24{stroke:#b46fb4}.cls-25{stroke:#c38dc4}.cls-26{stroke:#d9b6d9}.cls-27{fill:#1e1e1e}.cls-28{fill:#4e11a1}.cls-29{fill:#0c1768}.cls-31{stroke:#1e1e1e;stroke-width:6px}</style></defs>
<defs>
<linearGradient id="bg" x1="0%" y1="0%" x2="100%" y2="0%">
<stop offset="0%" style="stop-color:rgb(62,10,157);
stop-opacity:1"/>
<stop offset="100%" style="stop-color:rgb(36,34,143);
stop-opacity:1"/>
</linearGradient>
</defs>

<rect style="fill:url(#bg)" x="0" y="0" width="7370.165745856354" height="1334"/>
<path class="cls-1" d="M321.3 786.6H148.18a16.79 16.79 0 0 1-16.79-16.79V514.62a16.79 16.79 0 0 1 22.75-15.7l126.61 48A88.86 88.86 0 0 1 338.1 630v139.81a16.79 16.79 0 0 1-16.8 16.79z"/><path class="cls-2" d="M161.44 610.56h137.75v13.39H161.44zM161.44 641.69h137.75v13.39H161.44zM161.44 672.81h137.75v13.39H161.44zM161.44 703.94h137.75v13.39H161.44zM161.44 735.07h137.75v13.39H161.44z"/><path class="cls-1" d="M377.08 786.71h173.13A16.79 16.79 0 0 0 567 769.92V514.73A16.79 16.79 0 0 0 544.25 499l-126.61 48a88.86 88.86 0 0 0-57.35 83.08v139.84a16.79 16.79 0 0 0 16.79 16.79z"/><path class="cls-2" transform="rotate(-180 468.075 617.36)" d="M399.2 610.66h137.75v13.39H399.2z"/><path class="cls-2" transform="rotate(-180 468.075 648.49)" d="M399.2 641.79h137.75v13.39H399.2z"/><path class="cls-2" transform="rotate(-180 468.075 679.62)" d="M399.2 672.92h137.75v13.39H399.2z"/><path class="cls-2" transform="rotate(-180 468.075 710.75)" d="M399.2 704.05h137.75v13.39H399.2z"/><path class="cls-2" transform="rotate(-180 468.075 741.88)" d="M399.2 735.18h137.75v13.39H399.2z"/><path class="cls-1" transform="rotate(-5.59 392.22 318.401)" d="M136.08 220.78h512.58v195.39H136.08z"/><circle class="cls-3" cx="136.69" cy="272.1" r="12.69" transform="rotate(-5.59 136.607 271.942)"/><circle class="cls-3" cx="180.88" cy="267.78" r="12.69" transform="rotate(-5.59 180.756 267.63)"/><circle class="cls-3" cx="227.61" cy="263.21" r="12.69" transform="rotate(-5.59 227.48 263.135)"/><circle class="cls-3" cx="275.59" cy="258.51" r="12.69" transform="rotate(-5.59 275.448 258.394)"/><circle class="cls-3" cx="319.79" cy="254.19" r="12.69" transform="rotate(-5.59 319.597 254.081)"/><circle class="cls-3" cx="366.51" cy="249.62" r="12.69" transform="rotate(-5.59 366.326 249.485)"/><circle class="cls-3" cx="406.92" cy="245.67" r="12.69" transform="rotate(-5.59 406.758 245.607)"/><circle class="cls-3" cx="451.11" cy="241.34" r="12.69" transform="rotate(-5.59 450.907 241.295)"/><circle class="cls-3" cx="497.83" cy="236.77" r="12.69" transform="rotate(-5.59 497.636 236.698)"/><circle class="cls-3" cx="545.82" cy="232.08" r="12.69" transform="rotate(-5.59 545.605 231.956)"/><circle class="cls-3" cx="590.01" cy="227.75" r="12.69" transform="rotate(-5.59 589.754 227.644)"/><circle class="cls-3" cx="636.74" cy="223.18" r="12.69" transform="rotate(-5.59 636.478 223.15)"/><circle class="cls-3" cx="150.77" cy="416.06" r="12.69" transform="rotate(-5.59 150.73 415.842)"/><circle class="cls-3" cx="194.97" cy="411.73" r="12.69" transform="rotate(-5.59 194.878 411.53)"/><circle class="cls-3" cx="241.69" cy="407.16" r="12.69" transform="rotate(-5.59 241.603 407.035)"/><circle class="cls-3" cx="289.67" cy="402.47" r="12.69" transform="rotate(-5.59 289.57 402.293)"/><circle class="cls-3" cx="333.87" cy="398.14" r="12.69" transform="rotate(-5.59 333.72 397.981)"/><circle class="cls-3" cx="380.59" cy="393.57" r="12.69" transform="rotate(-5.59 380.449 393.384)"/><circle class="cls-3" cx="421" cy="389.62" r="12.69" transform="rotate(-5.59 420.778 389.502)"/><circle class="cls-3" cx="465.19" cy="385.3" r="12.69" transform="rotate(-5.59 465.035 385.092)"/><circle class="cls-3" cx="511.92" cy="380.72" r="12.69" transform="rotate(-5.59 511.657 380.593)"/><circle class="cls-3" cx="559.9" cy="376.03" r="12.69" transform="translate(-33.95 56.3)"/><circle class="cls-3" cx="604.1" cy="371.71" r="12.69" transform="rotate(-5.59 603.876 371.544)"/><circle class="cls-3" cx="650.82" cy="367.14" r="12.69" transform="rotate(-5.59 650.503 366.942)"/><text transform="rotate(-5.59 3940.105 -2290.466)" stroke-width="10" stroke-linejoin="round" stroke-linecap="round" stroke="#f9490f" fill="none" font-size="109.72" font-family="GillSans,Gill Sans" letter-spacing=".07em">B<tspan class="cls-6" x="69.45" y="0">AR</tspan></text><text transform="rotate(-5.59 3940.105 -2290.466)" stroke-width="8.5" stroke-linejoin="round" stroke-linecap="round" stroke="#f9490f" fill="none" font-size="109.72" font-family="GillSans,Gill Sans" letter-spacing=".07em">B<tspan class="cls-6" x="69.45" y="0">AR</tspan></text><text transform="rotate(-5.59 3940.105 -2290.466)" stroke-width="5" stroke-linejoin="round" stroke-linecap="round" stroke="#f9490f" fill="none" font-size="109.72" font-family="GillSans,Gill Sans" letter-spacing=".07em">B<tspan class="cls-6" x="69.45" y="0">AR</tspan></text><text transform="rotate(-5.59 3940.105 -2290.466)" stroke-width="7" stroke="#f9773c" stroke-linejoin="round" stroke-linecap="round" fill="none" font-size="109.72" font-family="GillSans,Gill Sans" letter-spacing=".07em">B<tspan class="cls-6" x="69.45" y="0">AR</tspan></text><text transform="rotate(-5.59 3940.105 -2290.466)" stroke-width="5.5" stroke="#f98f57" stroke-linejoin="round" stroke-linecap="round" fill="none" font-size="109.72" font-family="GillSans,Gill Sans" letter-spacing=".07em">B<tspan class="cls-6" x="69.45" y="0">AR</tspan></text><text transform="rotate(-5.59 3940.105 -2290.466)" stroke-width="4" stroke="#faa674" stroke-linejoin="round" stroke-linecap="round" fill="none" font-size="109.72" font-family="GillSans,Gill Sans" letter-spacing=".07em">B<tspan class="cls-6" x="69.45" y="0">AR</tspan></text><text transform="rotate(-5.59 3940.105 -2290.466)" stroke-width="2.5" stroke="#fbb88d" stroke-linejoin="round" stroke-linecap="round" fill="none" font-size="109.72" font-family="GillSans,Gill Sans" letter-spacing=".07em">B<tspan class="cls-6" x="69.45" y="0">AR</tspan></text><text transform="rotate(-5.59 3940.105 -2290.466)" stroke="#fcd0b0" stroke-linejoin="round" stroke-linecap="round" fill="none" font-size="109.72" font-family="GillSans,Gill Sans" letter-spacing=".07em">B<tspan class="cls-6" x="69.45" y="0">AR</tspan></text><path d="M513.35 316.11l10.37-40.48a5.36 5.36 0 0 0-7.67-6.09l-49.42 25.61a5.36 5.36 0 0 0 .56 9.78l39.05 14.87a5.36 5.36 0 0 0 7.11-3.69z" stroke-miterlimit="10" stroke="#f6f7f8" fill="none"/><rect class="cls-17" x="511.13" y="300.01" width="4.1" height="45.07" rx="2.05" ry="2.05" transform="rotate(-27.39 513.23 322.567)"/><rect class="cls-17" x="506.24" y="338.85" width="32.78" height="6.83" rx="3.41" ry="3.41" transform="rotate(-27.39 522.685 342.282)"/><path d="M548.88 302.41l30.6-28.41a5.36 5.36 0 0 0-3.16-9.27l-55.42-5.16a5.36 5.36 0 0 0-4.81 8.53l24.82 33.62a5.36 5.36 0 0 0 7.97.69z" stroke="#ffa630" stroke-miterlimit="10" fill="none"/><rect class="cls-3" x="522.72" y="305.69" width="45.07" height="4.1" rx="2.05" ry="2.05" transform="rotate(-84.69 545.223 307.747)"/><rect class="cls-3" x="539.14" y="313.05" width="6.83" height="32.78" rx="3.41" ry="3.41" transform="rotate(-84.69 542.52 329.447)"/><g class="cls-4"><path class="cls-19" d="M513.35 316.11l10.37-40.48a5.36 5.36 0 0 0-7.67-6.09l-49.42 25.61a5.36 5.36 0 0 0 .56 9.78l39.05 14.87a5.36 5.36 0 0 0 7.11-3.69z"/><path class="cls-19" d="M513.35 316.11l10.37-40.48a5.36 5.36 0 0 0-7.67-6.09l-49.42 25.61a5.36 5.36 0 0 0 .56 9.78l39.05 14.87a5.36 5.36 0 0 0 7.11-3.69z"/><rect class="cls-19" x="511.13" y="300.01" width="4.1" height="45.07" rx="2.05" ry="2.05" transform="rotate(-27.39 513.23 322.567)"/><rect class="cls-19" x="511.13" y="300.01" width="4.1" height="45.07" rx="2.05" ry="2.05" transform="rotate(-27.39 513.23 322.567)"/><rect class="cls-19" x="506.24" y="338.85" width="32.78" height="6.83" rx="3.41" ry="3.41" transform="rotate(-27.39 522.685 342.282)"/><rect class="cls-19" x="506.24" y="338.85" width="32.78" height="6.83" rx="3.41" ry="3.41" transform="rotate(-27.39 522.685 342.282)"/><path class="cls-19" d="M548.88 302.41l30.6-28.41a5.36 5.36 0 0 0-3.16-9.27l-55.42-5.16a5.36 5.36 0 0 0-4.81 8.53l24.82 33.62a5.36 5.36 0 0 0 7.97.69z"/><rect class="cls-19" x="522.72" y="305.69" width="45.07" height="4.1" rx="2.05" ry="2.05" transform="rotate(-84.69 545.223 307.747)"/><rect class="cls-19" x="539.14" y="313.05" width="6.83" height="32.78" rx="3.41" ry="3.41" transform="rotate(-84.69 542.52 329.447)"/></g><g class="cls-7"><path class="cls-20" d="M513.35 316.11l10.37-40.48a5.36 5.36 0 0 0-7.67-6.09l-49.42 25.61a5.36 5.36 0 0 0 .56 9.78l39.05 14.87a5.36 5.36 0 0 0 7.11-3.69z"/><path class="cls-20" d="M513.35 316.11l10.37-40.48a5.36 5.36 0 0 0-7.67-6.09l-49.42 25.61a5.36 5.36 0 0 0 .56 9.78l39.05 14.87a5.36 5.36 0 0 0 7.11-3.69z"/><rect class="cls-20" x="511.13" y="300.01" width="4.1" height="45.07" rx="2.05" ry="2.05" transform="rotate(-27.39 513.23 322.567)"/><rect class="cls-20" x="511.13" y="300.01" width="4.1" height="45.07" rx="2.05" ry="2.05" transform="rotate(-27.39 513.23 322.567)"/><rect class="cls-20" x="506.24" y="338.85" width="32.78" height="6.83" rx="3.41" ry="3.41" transform="rotate(-27.39 522.685 342.282)"/><rect class="cls-20" x="506.24" y="338.85" width="32.78" height="6.83" rx="3.41" ry="3.41" transform="rotate(-27.39 522.685 342.282)"/><path class="cls-20" d="M548.88 302.41l30.6-28.41a5.36 5.36 0 0 0-3.16-9.27l-55.42-5.16a5.36 5.36 0 0 0-4.81 8.53l24.82 33.62a5.36 5.36 0 0 0 7.97.69z"/><rect class="cls-20" x="522.72" y="305.69" width="45.07" height="4.1" rx="2.05" ry="2.05" transform="rotate(-84.69 545.223 307.747)"/><rect class="cls-20" x="539.14" y="313.05" width="6.83" height="32.78" rx="3.41" ry="3.41" transform="rotate(-84.69 542.52 329.447)"/></g><g class="cls-9"><path class="cls-21" d="M513.35 316.11l10.37-40.48a5.36 5.36 0 0 0-7.67-6.09l-49.42 25.61a5.36 5.36 0 0 0 .56 9.78l39.05 14.87a5.36 5.36 0 0 0 7.11-3.69z"/><path class="cls-21" d="M513.35 316.11l10.37-40.48a5.36 5.36 0 0 0-7.67-6.09l-49.42 25.61a5.36 5.36 0 0 0 .56 9.78l39.05 14.87a5.36 5.36 0 0 0 7.11-3.69z"/><rect class="cls-21" x="511.13" y="300.01" width="4.1" height="45.07" rx="2.05" ry="2.05" transform="rotate(-27.39 513.23 322.567)"/><rect class="cls-21" x="511.13" y="300.01" width="4.1" height="45.07" rx="2.05" ry="2.05" transform="rotate(-27.39 513.23 322.567)"/><rect class="cls-21" x="506.24" y="338.85" width="32.78" height="6.83" rx="3.41" ry="3.41" transform="rotate(-27.39 522.685 342.282)"/><rect class="cls-21" x="506.24" y="338.85" width="32.78" height="6.83" rx="3.41" ry="3.41" transform="rotate(-27.39 522.685 342.282)"/><path class="cls-21" d="M548.88 302.41l30.6-28.41a5.36 5.36 0 0 0-3.16-9.27l-55.42-5.16a5.36 5.36 0 0 0-4.81 8.53l24.82 33.62a5.36 5.36 0 0 0 7.97.69z"/><rect class="cls-21" x="522.72" y="305.69" width="45.07" height="4.1" rx="2.05" ry="2.05" transform="rotate(-84.69 545.223 307.747)"/><rect class="cls-21" x="539.14" y="313.05" width="6.83" height="32.78" rx="3.41" ry="3.41" transform="rotate(-84.69 542.52 329.447)"/></g><path class="cls-22" d="M513.35 316.11l10.37-40.48a5.36 5.36 0 0 0-7.67-6.09l-49.42 25.61a5.36 5.36 0 0 0 .56 9.78l39.05 14.87a5.36 5.36 0 0 0 7.11-3.69z"/><path class="cls-22" d="M513.35 316.11l10.37-40.48a5.36 5.36 0 0 0-7.67-6.09l-49.42 25.61a5.36 5.36 0 0 0 .56 9.78l39.05 14.87a5.36 5.36 0 0 0 7.11-3.69z"/><rect class="cls-22" x="511.13" y="300.01" width="4.1" height="45.07" rx="2.05" ry="2.05" transform="rotate(-27.39 513.23 322.567)"/><rect class="cls-22" x="511.13" y="300.01" width="4.1" height="45.07" rx="2.05" ry="2.05" transform="rotate(-27.39 513.23 322.567)"/><rect class="cls-22" x="506.24" y="338.85" width="32.78" height="6.83" rx="3.41" ry="3.41" transform="rotate(-27.39 522.685 342.282)"/><rect class="cls-22" x="506.24" y="338.85" width="32.78" height="6.83" rx="3.41" ry="3.41" transform="rotate(-27.39 522.685 342.282)"/><path class="cls-22" d="M548.88 302.41l30.6-28.41a5.36 5.36 0 0 0-3.16-9.27l-55.42-5.16a5.36 5.36 0 0 0-4.81 8.53l24.82 33.62a5.36 5.36 0 0 0 7.97.69z"/><rect class="cls-22" x="522.72" y="305.69" width="45.07" height="4.1" rx="2.05" ry="2.05" transform="rotate(-84.69 545.223 307.747)"/><rect class="cls-22" x="539.14" y="313.05" width="6.83" height="32.78" rx="3.41" ry="3.41" transform="rotate(-84.69 542.52 329.447)"/><path class="cls-23" d="M513.35 316.11l10.37-40.48a5.36 5.36 0 0 0-7.67-6.09l-49.42 25.61a5.36 5.36 0 0 0 .56 9.78l39.05 14.87a5.36 5.36 0 0 0 7.11-3.69z"/><path class="cls-23" d="M513.35 316.11l10.37-40.48a5.36 5.36 0 0 0-7.67-6.09l-49.42 25.61a5.36 5.36 0 0 0 .56 9.78l39.05 14.87a5.36 5.36 0 0 0 7.11-3.69z"/><rect class="cls-23" x="511.13" y="300.01" width="4.1" height="45.07" rx="2.05" ry="2.05" transform="rotate(-27.39 513.23 322.567)"/><rect class="cls-23" x="511.13" y="300.01" width="4.1" height="45.07" rx="2.05" ry="2.05" transform="rotate(-27.39 513.23 322.567)"/><rect class="cls-23" x="506.24" y="338.85" width="32.78" height="6.83" rx="3.41" ry="3.41" transform="rotate(-27.39 522.685 342.282)"/><rect class="cls-23" x="506.24" y="338.85" width="32.78" height="6.83" rx="3.41" ry="3.41" transform="rotate(-27.39 522.685 342.282)"/><path class="cls-23" d="M548.88 302.41l30.6-28.41a5.36 5.36 0 0 0-3.16-9.27l-55.42-5.16a5.36 5.36 0 0 0-4.81 8.53l24.82 33.62a5.36 5.36 0 0 0 7.97.69z"/><rect class="cls-23" x="522.72" y="305.69" width="45.07" height="4.1" rx="2.05" ry="2.05" transform="rotate(-84.69 545.223 307.747)"/><rect class="cls-23" x="539.14" y="313.05" width="6.83" height="32.78" rx="3.41" ry="3.41" transform="rotate(-84.69 542.52 329.447)"/><path class="cls-24" d="M513.35 316.11l10.37-40.48a5.36 5.36 0 0 0-7.67-6.09l-49.42 25.61a5.36 5.36 0 0 0 .56 9.78l39.05 14.87a5.36 5.36 0 0 0 7.11-3.69z"/><path class="cls-24" d="M513.35 316.11l10.37-40.48a5.36 5.36 0 0 0-7.67-6.09l-49.42 25.61a5.36 5.36 0 0 0 .56 9.78l39.05 14.87a5.36 5.36 0 0 0 7.11-3.69z"/><rect class="cls-24" x="511.13" y="300.01" width="4.1" height="45.07" rx="2.05" ry="2.05" transform="rotate(-27.39 513.23 322.567)"/><rect class="cls-24" x="511.13" y="300.01" width="4.1" height="45.07" rx="2.05" ry="2.05" transform="rotate(-27.39 513.23 322.567)"/><rect class="cls-24" x="506.24" y="338.85" width="32.78" height="6.83" rx="3.41" ry="3.41" transform="rotate(-27.39 522.685 342.282)"/><rect class="cls-24" x="506.24" y="338.85" width="32.78" height="6.83" rx="3.41" ry="3.41" transform="rotate(-27.39 522.685 342.282)"/><path class="cls-24" d="M548.88 302.41l30.6-28.41a5.36 5.36 0 0 0-3.16-9.27l-55.42-5.16a5.36 5.36 0 0 0-4.81 8.53l24.82 33.62a5.36 5.36 0 0 0 7.97.69z"/><rect class="cls-24" x="522.72" y="305.69" width="45.07" height="4.1" rx="2.05" ry="2.05" transform="rotate(-84.69 545.223 307.747)"/><rect class="cls-24" x="539.14" y="313.05" width="6.83" height="32.78" rx="3.41" ry="3.41" transform="rotate(-84.69 542.52 329.447)"/><path class="cls-25" d="M513.35 316.11l10.37-40.48a5.36 5.36 0 0 0-7.67-6.09l-49.42 25.61a5.36 5.36 0 0 0 .56 9.78l39.05 14.87a5.36 5.36 0 0 0 7.11-3.69z"/><path class="cls-25" d="M513.35 316.11l10.37-40.48a5.36 5.36 0 0 0-7.67-6.09l-49.42 25.61a5.36 5.36 0 0 0 .56 9.78l39.05 14.87a5.36 5.36 0 0 0 7.11-3.69z"/><rect class="cls-25" x="511.13" y="300.01" width="4.1" height="45.07" rx="2.05" ry="2.05" transform="rotate(-27.39 513.23 322.567)"/><rect class="cls-25" x="511.13" y="300.01" width="4.1" height="45.07" rx="2.05" ry="2.05" transform="rotate(-27.39 513.23 322.567)"/><rect class="cls-25" x="506.24" y="338.85" width="32.78" height="6.83" rx="3.41" ry="3.41" transform="rotate(-27.39 522.685 342.282)"/><rect class="cls-25" x="506.24" y="338.85" width="32.78" height="6.83" rx="3.41" ry="3.41" transform="rotate(-27.39 522.685 342.282)"/><path class="cls-25" d="M548.88 302.41l30.6-28.41a5.36 5.36 0 0 0-3.16-9.27l-55.42-5.16a5.36 5.36 0 0 0-4.81 8.53l24.82 33.62a5.36 5.36 0 0 0 7.97.69z"/><rect class="cls-25" x="522.72" y="305.69" width="45.07" height="4.1" rx="2.05" ry="2.05" transform="rotate(-84.69 545.223 307.747)"/><rect class="cls-25" x="539.14" y="313.05" width="6.83" height="32.78" rx="3.41" ry="3.41" transform="rotate(-84.69 542.52 329.447)"/><path class="cls-26" d="M513.35 316.11l10.37-40.48a5.36 5.36 0 0 0-7.67-6.09l-49.42 25.61a5.36 5.36 0 0 0 .56 9.78l39.05 14.87a5.36 5.36 0 0 0 7.11-3.69z"/><path class="cls-26" d="M513.35 316.11l10.37-40.48a5.36 5.36 0 0 0-7.67-6.09l-49.42 25.61a5.36 5.36 0 0 0 .56 9.78l39.05 14.87a5.36 5.36 0 0 0 7.11-3.69z"/><rect class="cls-26" x="511.13" y="300.01" width="4.1" height="45.07" rx="2.05" ry="2.05" transform="rotate(-27.39 513.23 322.567)"/><rect class="cls-26" x="511.13" y="300.01" width="4.1" height="45.07" rx="2.05" ry="2.05" transform="rotate(-27.39 513.23 322.567)"/><rect class="cls-26" x="506.24" y="338.85" width="32.78" height="6.83" rx="3.41" ry="3.41" transform="rotate(-27.39 522.685 342.282)"/><rect class="cls-26" x="506.24" y="338.85" width="32.78" height="6.83" rx="3.41" ry="3.41" transform="rotate(-27.39 522.685 342.282)"/><path class="cls-26" d="M548.88 302.41l30.6-28.41a5.36 5.36 0 0 0-3.16-9.27l-55.42-5.16a5.36 5.36 0 0 0-4.81 8.53l24.82 33.62a5.36 5.36 0 0 0 7.97.69z"/><rect class="cls-26" x="522.72" y="305.69" width="45.07" height="4.1" rx="2.05" ry="2.05" transform="rotate(-84.69 545.223 307.747)"/><rect class="cls-26" x="539.14" y="313.05" width="6.83" height="32.78" rx="3.41" ry="3.41" transform="rotate(-84.69 542.52 329.447)"/><path class="cls-1" d="M382 841h1044v41.25H382z"/><path class="cls-27" d="M443.35 1024.11h18.48V1217h-18.48z"/><ellipse class="cls-1" cx="452.5" cy="1018.72" rx="102.5" ry="28.72"/><ellipse class="cls-27" cx="452.24" cy="1209" rx="64.24" ry="18"/><path class="cls-27" d="M1136.35 1013.11h18.48V1206h-18.48z"/><ellipse class="cls-1" cx="1145.5" cy="1007.72" rx="102.5" ry="28.72"/><ellipse class="cls-27" cx="1145.24" cy="1198" rx="64.24" ry="18"/><rect class="cls-1" x="970" y="688.23" width="47" height="153.77" rx="12.04" ry="12.04"/><rect class="cls-1" x="984.51" y="627.31" width="18.57" height="100.38" rx="3.29" ry="3.29"/><rect class="cls-1" x="978.7" y="627.31" width="30.17" height="6.38" rx="3.19" ry="3.19"/><path class="cls-28" d="M994 728h23v65h-23z"/><rect class="cls-1" x="1033" y="746" width="33" height="96" rx="7.97" ry="7.97"/><rect class="cls-1" x="1039.11" y="701.26" width="21.19" height="4.48" rx="2.24" ry="2.24"/><path class="cls-28" d="M1039 766h23v36.6h-23z"/><path class="cls-1" d="M1066 760h-33l8-52h17l8 52zM2123 389h142v641h-142z"/><rect class="cls-17" x="2378.8" y="276.21" width="88" height="478" rx="30.82" ry="30.82"/><path class="cls-1" d="M1672 390h142v641h-142z"/><rect class="cls-27" x="1892.47" y="996.77" width="189.13" height="80.29" rx="4.05" ry="4.05"/><path class="cls-27" d="M1693 726h111v27h-111zM2139 713h111v27h-111z"/><path class="cls-27" transform="rotate(.36 3792.072 817.29)" d="M3537.83 369.37h439.86v880.9h-439.86z"/><path class="cls-17" transform="rotate(90.36 3616.375 466.562)" d="M3573.14 448.57h86.29v35.76h-86.29z"/><path class="cls-29" transform="rotate(90.36 3709.356 467.157)" d="M3666.12 449.16h86.29v35.76h-86.29z"/><path class="cls-29" transform="rotate(90.36 3803.528 467.754)" d="M3760.29 449.75h86.29v35.76h-86.29z"/><path class="cls-29" transform="rotate(90.36 3903.661 468.391)" d="M3860.42 450.39h86.29v35.76h-86.29z"/><path class="cls-29" transform="rotate(90.36 3615.498 604.837)" d="M3572.27 586.84h86.29v35.76h-86.29z"/><path class="cls-29" transform="rotate(90.36 3708.48 605.432)" d="M3665.24 587.43h86.29v35.76h-86.29z"/><path class="cls-17" transform="rotate(90.36 3802.646 606.033)" d="M3759.41 588.03h86.29v35.76h-86.29z"/><path class="cls-17" transform="rotate(90.36 3902.775 606.666)" d="M3859.54 588.66h86.29v35.76h-86.29z"/><path class="cls-29" transform="rotate(90.36 3614.605 745.5)" d="M3571.38 727.49h86.29v35.76h-86.29z"/><path class="cls-17" transform="rotate(90.36 3707.58 746.09)" d="M3664.35 728.08h86.29v35.76h-86.29z"/><path class="cls-29" transform="rotate(90.36 3801.752 746.686)" d="M3758.52 728.68h86.29v35.76h-86.29z"/><path class="cls-29" transform="rotate(90.36 3901.88 747.328)" d="M3858.65 729.32h86.29v35.76h-86.29z"/><path class="cls-17" transform="rotate(90.36 3613.723 883.769)" d="M3570.5 865.77h86.29v35.76h-86.29z"/><path class="cls-17" transform="rotate(90.36 3706.704 884.364)" d="M3663.48 866.36h86.29v35.76h-86.29z"/><path class="cls-17" transform="rotate(90.36 3800.87 884.965)" d="M3757.64 866.95h86.29v35.76h-86.29z"/><path class="cls-17" transform="rotate(90.36 3901.004 885.603)" d="M3857.77 867.59h86.29v35.76h-86.29z"/><path class="cls-29" transform="rotate(90.36 3612.842 1022.049)" d="M3569.62 1004.04h86.29v35.76h-86.29z"/><path class="cls-29" transform="rotate(90.36 3705.817 1022.639)" d="M3662.6 1004.63h86.29v35.76h-86.29z"/><path class="cls-17" transform="rotate(90.36 3799.994 1023.24)" d="M3756.77 1005.22h86.29v35.76h-86.29z"/><path class="cls-29" transform="rotate(90.36 3900.118 1023.878)" d="M3856.89 1005.86h86.29v35.76h-86.29z"/><path class="cls-17" transform="rotate(90.36 3611.948 1162.71)" d="M3568.73 1144.69h86.29v35.76h-86.29z"/><path class="cls-17" transform="rotate(90.36 3704.923 1163.301)" d="M3661.71 1145.28H3748v35.76h-86.29z"/><path class="cls-17" transform="rotate(90.36 3799.095 1163.897)" d="M3755.88 1145.88h86.29v35.76h-86.29z"/><path class="cls-29" transform="rotate(90.36 3899.224 1164.54)" d="M3856 1146.51h86.29v35.76H3856z"/><path class="cls-27" transform="rotate(-.47 1956.703 275.002)" d="M1739.9 214.09h434.16v121.58H1739.9z"/><text transform="rotate(-.47 38238.66 -215487.39)" font-size="78.34" font-family="BodoniSvtyTwoOSITCTT-Book,Bodoni 72 Oldstyle" letter-spacing=".01em" fill="#f6f7f8">NAUGHTIE</text><path class="cls-1" transform="rotate(-9.77 2208.464 1129.269)" d="M2144 1076h130v107h-130z"/><path class="cls-17" transform="rotate(-9.77 2201.73 1129.46)" d="M2163.25 1113.16h78.07v33.07h-78.07z"/><path class="cls-31" d="M2224.29 1082.89a23.48 23.48 0 1 1-45.56 11.41"/><path class="cls-1" transform="rotate(-3.13 2284.058 1177.571)" d="M2176.45 1096.23h213.2v161.54h-213.2z"/><path class="cls-17" transform="rotate(-3.13 2285.101 1179.614)" d="M2214.82 1149.73h138.49v58.66h-138.49z"/><path class="cls-31" d="M2325.26 1112.35a44.29 44.29 0 1 1-88.41 5.64"/><rect class="cls-27" x="2776" y="181" width="11" height="65" rx="5.5" ry="5.5" transform="rotate(19.09 2781.668 213.528)"/><rect class="cls-27" x="2862" y="181" width="11" height="65" rx="5.5" ry="5.5" transform="rotate(19.09 2867.678 213.528)"/><rect class="cls-27" x="2933" y="181" width="11" height="65" rx="5.5" ry="5.5" transform="rotate(19.09 2938.679 213.544)"/><rect class="cls-27" x="3016" y="184" width="11" height="65" rx="5.5" ry="5.5" transform="rotate(19.09 3021.675 216.528)"/><rect class="cls-27" x="2826" y="181" width="11" height="65" rx="5.5" ry="5.5" transform="rotate(19.09 2831.66 213.53)"/><rect class="cls-27" x="2897.5" y="183.5" width="11" height="65" rx="5.5" ry="5.5" transform="rotate(19.09 2903.17 216.03)"/><rect class="cls-27" x="2973" y="181" width="11" height="65" rx="5.5" ry="5.5" transform="rotate(19.09 2978.673 213.546)"/><rect class="cls-27" x="3048" y="181" width="11" height="65" rx="5.5" ry="5.5" transform="rotate(19.09 3053.673 213.532)"/><path class="cls-27" transform="rotate(90 2931.54 191.5)" d="M2922.3-11.96h18.48v406.91h-18.48z"/><rect class="cls-27" x="3032" y="223" width="32.47" height="183" rx="11.59" ry="11.59"/><rect class="cls-27" x="2960" y="223" width="32.47" height="183" rx="11.59" ry="11.59"/><rect class="cls-27" x="2884" y="223" width="32.47" height="183" rx="11.59" ry="11.59"/><rect class="cls-27" x="2809" y="223" width="32.47" height="183" rx="11.59" ry="11.59"/><rect class="cls-1" x="2746" y="224" width="44" height="188" rx="13.67" ry="13.67"/><rect class="cls-1" x="2836" y="224" width="44" height="188" rx="13.67" ry="13.67"/><rect class="cls-1" x="2911" y="224" width="44" height="236" rx="15.32" ry="15.32"/><rect class="cls-1" x="2997" y="224" width="44" height="248" rx="15.7" ry="15.7"/><path class="cls-27" transform="rotate(.54 3749.262 1248.163)" d="M3524.81 1224h438.81v45.61h-438.81z"/></svg>