<svg class="icon" width="200" height="199.8" viewBox="0 0 1025 1024" xmlns="http://www.w3.org/2000/svg"><path fill="#333" d="M680.63 406.216c-11.167-5.247-16.258-12.301-15.272-21.156.987-8.862 4.764-15.91 11.331-21.162 1.973-1.311 8.378-6.395 19.219-15.25 10.836-8.855 24.141-19.517 39.907-31.981-27.59-31.492-60.439-56.255-98.543-74.293-38.104-18.043-79.493-27.061-124.164-27.061-41.384 0-80.146 7.706-116.277 23.12-36.135 15.421-67.666 36.576-94.602 63.473-26.935 26.899-48.12 58.384-63.562 94.47-15.435 36.081-23.152 74.789-23.152 116.115 0 40.672 7.716 79.051 23.152 115.136 15.441 36.081 36.626 67.573 63.562 94.47 26.935 26.893 58.467 48.054 94.602 63.469 36.131 15.418 74.893 23.125 116.277 23.125 34.162 0 66.516-5.41 97.065-16.236s58.467-26.076 83.761-45.757 46.971-42.807 65.039-69.378c18.062-26.567 31.368-55.598 39.907-87.089 4.6-15.087 13.14-27.552 25.622-37.393s27.262-14.762 44.344-14.762c20.368 0 37.613 7.216 51.735 21.651 14.122 14.428 21.186 31.488 21.186 51.168 0 9.188-1.641 18.043-4.927 26.572-13.795 45.92-34.162 88.235-61.092 126.939-26.935 38.704-58.961 72.002-96.079 99.88-37.122 27.883-78.344 49.698-123.672 65.438-45.331 15.746-92.955 23.62-142.886 23.62-61.092 0-118.578-11.483-172.45-34.442-53.871-22.963-100.678-54.454-140.424-94.47-39.743-40.02-71.279-86.762-94.602-140.226-23.323-53.469-34.981-110.703-34.981-171.718 0-61.008 11.659-118.411 34.98-172.208 23.323-53.795 54.858-100.538 94.602-140.226 39.744-39.687 86.552-71.18 140.424-94.47 53.872-23.288 111.357-34.931 172.45-34.931 67.666 0 130.405 13.939 188.216 41.822S808.409 178.24 849.14 226.129c15.11-11.151 27.758-20.829 37.94-29.025 10.182-8.202 16.586-13.286 19.213-15.257 3.946-3.276 8.214-5.737 12.813-7.38 4.599-1.639 8.867-1.639 12.807 0 3.94 1.643 7.391 5.088 10.35 10.336 2.954 5.246 5.091 13.117 6.404 23.617.655 5.906 1.313 15.91 1.967 30.011.658 14.107 1.313 30.506 1.973 49.202.658 18.702.987 38.051.987 58.063 0 20.007-.328 38.866-.987 56.583-.658 22.304-5.913 38.376-15.768 48.218-5.255 5.246-13.136 8.197-23.649 8.855s-21.682-.328-33.504-2.95a9037.438 9037.438 0 0 0-58.635-12.796c-21.349-4.593-41.716-9.345-61.093-14.265-19.381-4.921-36.463-9.514-51.245-13.782-14.779-4.26-24.144-7.38-28.085-9.345zm0 0z"/></svg>